<svg width="74" height="74" viewBox="0 0 74 74" fill="none" xmlns="http://www.w3.org/2000/svg">
<path d="M37.0001 6.16666C19.9801 6.16666 6.16675 19.98 6.16675 37C6.16675 54.02 19.9801 67.8333 37.0001 67.8333C54.0201 67.8333 67.8334 54.02 67.8334 37C67.8334 19.98 54.0201 6.16666 37.0001 6.16666ZM49.3334 40.0833H40.0834V49.3333C40.0834 51.0292 38.6959 52.4167 37.0001 52.4167C35.3042 52.4167 33.9167 51.0292 33.9167 49.3333V40.0833H24.6667C22.9709 40.0833 21.5834 38.6958 21.5834 37C21.5834 35.3042 22.9709 33.9167 24.6667 33.9167H33.9167V24.6667C33.9167 22.9708 35.3042 21.5833 37.0001 21.5833C38.6959 21.5833 40.0834 22.9708 40.0834 24.6667V33.9167H49.3334C51.0293 33.9167 52.4168 35.3042 52.4168 37C52.4168 38.6958 51.0293 40.0833 49.3334 40.0833Z" fill="#6A539D"/>
</svg>
