<svg width="32" height="32" viewBox="0 0 48 48" fill="none" xmlns="http://www.w3.org/2000/svg">
<path d="M35.62 8.94C35.46 8.94 35.3 8.9 35.16 8.82C31.32 6.84 28 6 24.02 6C20.06 6 16.3 6.94 12.88 8.82C12.4 9.08 11.8 8.9 11.52 8.42C11.26 7.94 11.44 7.32 11.92 7.06C15.64 5.04 19.72 4 24.02 4C28.28 4 32 4.94 36.08 7.04C36.58 7.3 36.76 7.9 36.5 8.38C36.32 8.74 35.98 8.94 35.62 8.94ZM7 19.44C6.8 19.44 6.6 19.38 6.42 19.26C5.96 18.94 5.86 18.32 6.18 17.86C8.16 15.06 10.68 12.86 13.68 11.32C19.96 8.08 28 8.06 34.3 11.3C37.3 12.84 39.82 15.02 41.8 17.8C42.12 18.24 42.02 18.88 41.56 19.2C41.1 19.52 40.48 19.42 40.16 18.96C38.36 16.44 36.08 14.46 33.38 13.08C27.64 10.14 20.3 10.14 14.58 13.1C11.86 14.5 9.58 16.5 7.78 19.02C7.62 19.3 7.32 19.44 7 19.44ZM19.5 43.58C19.24 43.58 18.98 43.48 18.8 43.28C17.06 41.54 16.12 40.42 14.78 38C13.4 35.54 12.68 32.54 12.68 29.32C12.68 23.38 17.76 18.54 24 18.54C30.24 18.54 35.32 23.38 35.32 29.32C35.32 29.88 34.88 30.32 34.32 30.32C33.76 30.32 33.32 29.88 33.32 29.32C33.32 24.48 29.14 20.54 24 20.54C18.86 20.54 14.68 24.48 14.68 29.32C14.68 32.2 15.32 34.86 16.54 37.02C17.82 39.32 18.7 40.3 20.24 41.86C20.62 42.26 20.62 42.88 20.24 43.28C20.02 43.48 19.76 43.58 19.5 43.58ZM33.84 39.88C31.46 39.88 29.36 39.28 27.64 38.1C24.66 36.08 22.88 32.8 22.88 29.32C22.88 28.76 23.32 28.32 23.88 28.32C24.44 28.32 24.88 28.76 24.88 29.32C24.88 32.14 26.32 34.8 28.76 36.44C30.18 37.4 31.84 37.86 33.84 37.86C34.32 37.86 35.12 37.8 35.92 37.66C36.46 37.56 36.98 37.92 37.08 38.48C37.18 39.02 36.82 39.54 36.26 39.64C35.12 39.86 34.12 39.88 33.84 39.88ZM29.82 44C29.74 44 29.64 43.98 29.56 43.96C26.38 43.08 24.3 41.9 22.12 39.76C19.32 36.98 17.78 33.28 17.78 29.32C17.78 26.08 20.54 23.44 23.94 23.44C27.34 23.44 30.1 26.08 30.1 29.32C30.1 31.46 31.96 33.2 34.26 33.2C36.56 33.2 38.42 31.46 38.42 29.32C38.42 21.78 31.92 15.66 23.92 15.66C18.24 15.66 13.04 18.82 10.7 23.72C9.92 25.34 9.52 27.24 9.52 29.32C9.52 30.88 9.66 33.34 10.86 36.54C11.06 37.06 10.8 37.64 10.28 37.82C9.76 38.02 9.18 37.74 9 37.24C8.02 34.62 7.54 32.02 7.54 29.32C7.54 26.92 8 24.74 8.9 22.84C11.56 17.26 17.46 13.64 23.92 13.64C33.02 13.64 40.42 20.66 40.42 29.3C40.42 32.54 37.66 35.18 34.26 35.18C30.86 35.18 28.1 32.54 28.1 29.3C28.1 27.16 26.24 25.42 23.94 25.42C21.64 25.42 19.78 27.16 19.78 29.3C19.78 32.72 21.1 35.92 23.52 38.32C25.42 40.2 27.24 41.24 30.06 42.02C30.6 42.16 30.9 42.72 30.76 43.24C30.66 43.7 30.24 44 29.82 44Z" fill="#6A539D"/>
</svg>
